<?xml version="1.0" encoding="UTF-8"?>
<svg width="400" height="193.79" version="1.1" viewBox="0 0 400 193.79" xmlns="http://www.w3.org/2000/svg">
 <defs>
  <style>.cls-1{fill:#f33;}.cls-2{fill:#001522;}.cls-3{fill:#ff3;}</style>
 </defs>
 <g stroke-width=".93712">
  <path d="m85.017 86.385q-4.6294-3.2893-15.313-1.6118a68.054 68.054 0 0 0-20.701 6.5598 66.854 66.854 0 0 0-15.631 10.908 49.752 49.752 0 0 0-9.8304 12.707c-2.2959 4.3857-3.4111 8.4341-3.3361 12.183a12.604 12.604 0 0 0 4.5169 9.8023 34.617 34.617 0 0 0 10.243 5.7164 119.75 119.75 0 0 0 12.764 3.8328c4.3951 1.0964 8.5653 2.3615 12.398 3.7485a32.377 32.377 0 0 1 9.3712 5.023 9.3712 9.3712 0 0 1 3.5517 7.497 11.901 11.901 0 0 1-2.3522 7.3939 25.115 25.115 0 0 1-6.7285 6.3256 47.362 47.362 0 0 1-9.5961 4.7606 58.308 58.308 0 0 1-10.983 2.8114 39.978 39.978 0 0 1-11.049 0.40296 19.576 19.576 0 0 1-7.497-2.3334 12.304 12.304 0 0 1-4.4138-4.2639 11.48 11.48 0 0 1-1.6681-5.6321 18.124 18.124 0 0 1 2.0429-8.3591 30.185 30.185 0 0 1 6.4474-8.509l3.3924-3.2424-4.7512 0.7497a41.439 41.439 0 0 0-7.8062 2.071 29.051 29.051 0 0 0-7.497 4.0577 21.676 21.676 0 0 0-5.6227 6.438 17.037 17.037 0 0 0-2.1366 9.1744 15.931 15.931 0 0 0 3.4861 10.065 20.813 20.813 0 0 0 8.6965 6.0819 39.603 39.603 0 0 0 11.995 2.4084 65.814 65.814 0 0 0 10.796-0.35611c1.0121-0.11245 2.0242-0.25302 3.055-0.4217a81.97 81.97 0 0 0 16.156-4.3201 69.197 69.197 0 0 0 14.657-7.5626 41.983 41.983 0 0 0 10.693-10.308 20.926 20.926 0 0 0 4.0484-12.81 15.313 15.313 0 0 0-4.3764-10.974 31.14 31.14 0 0 0-10.158-6.4755 80.18 80.18 0 0 0-12.679-3.9546c-4.3482-0.93712-8.4341-2.0898-12.248-3.2799a33.427 33.427 0 0 1-9.1557-4.2733 7.3658 7.3658 0 0 1-3.3549-6.2225c-0.05623-2.3053 0.76844-5.1073 2.4459-8.331a40.727 40.727 0 0 1 7.3283-9.6992 52.666 52.666 0 0 1 11.349-8.4341 41.786 41.786 0 0 1 14.122-4.873c0.50604-0.08434 0.99335-0.14994 1.4525-0.1968 3.1581-0.37485 4.4326 0 4.9105 0.25302a2.5677 2.5677 0 0 1 1.4057 2.4365 15.303 15.303 0 0 1-1.3026 5.8101c-0.93712 2.3522-2.0523 4.8262-3.2893 7.3564-1.237 2.5302-2.399 5.1073-3.3924 7.5626a17.655 17.655 0 0 0-1.4994 6.7848 5.5571 5.5571 0 0 0 1.7899 4.1889c1.1714 1.0308 3.0269 1.565 5.529 1.5744h1.0589l0.59976-0.8153c1.3588-1.8086 2.8114-3.9828 4.3201-6.4286a86.909 86.909 0 0 0 4.1889-7.7406 57.867 57.867 0 0 0 3.1581-8.1998 25.818 25.818 0 0 0 1.1714-7.7875 10.992 10.992 0 0 0-4.7699-9.2213"/>
  <path d="m277.79 142.03c-0.54352 0.4217-1.087 0.77781-1.6306 1.1527h0.10308c0.56227-0.44982 1.0589-0.8153 1.5275-1.1433"/>
  <path d="m313.18 60.052a11.142 11.142 0 0 0-1.1339-3.2799 8.4341 8.4341 0 0 0-2.0429-2.549 4.8168 4.8168 0 0 0-3.7016-1.0027c-2.474 0.29051-5.4259 2.1179-9.2962 5.7539a126.02 126.02 0 0 0-11.489 12.707c-4.1046 5.1167-8.3685 10.908-12.66 17.215-4.292 6.3068-8.2373 12.764-11.695 19.117a169.73 169.73 0 0 0-8.6871 18.293c-0.62787 1.5462-1.1901 3.1206-1.6774 4.6856a55.974 55.974 0 0 1-5.8851 7.4032 62.225 62.225 0 0 1-7.7312 6.9441 47.587 47.587 0 0 1-7.3189 4.5919 18.517 18.517 0 0 1-5.6227 1.8742c-1.4244 0.16868-2.4271 0-2.877-0.4217a3.2143 3.2143 0 0 1-0.77781-2.4927 19.792 19.792 0 0 1 1.8742-6.9441c1.2838-2.8863 2.6802-5.7164 4.1514-8.4341s2.8114-5.1167 4.1046-7.1502c1.9492-3.1487 2.1179-3.7485 2.1366-4.2733a2.6614 2.6614 0 0 0-1.743-2.4834 10.402 10.402 0 0 0-2.8676-0.87152 24.421 24.421 0 0 0-2.98-0.25303c-0.87152 0-1.5181 0-1.9492-0.0656l-1.1901-0.0469-0.63725 0.93712c-1.6774 2.5021-3.8328 5.782-6.3818 9.7179-2.549 3.9359-5.2947 7.7781-8.2186 11.536a82.467 82.467 0 0 1-8.8089 9.7367c-2.6989 2.5021-5.1542 3.8984-7.3002 4.1421a3.055 3.055 0 0 1-2.071-0.32799 3.4392 3.4392 0 0 1-1.312-1.5556 7.3658 7.3658 0 0 1-0.58102-2.3241c-0.075-0.88089-0.10308-1.5462-0.0937-1.9961a21.751 21.751 0 0 1 1.4244-6.5598 61.85 61.85 0 0 1 3.2424-7.3751c1.2464-2.399 2.549-4.6856 3.8797-6.6817 1.3307-1.9961 2.474-3.6548 3.3924-4.7887l0.93712-1.1714-1.1433-0.81529a10.599 10.599 0 0 0-3.9734-1.6587 12.436 12.436 0 0 0-3.3455-0.40296h-0.18743c-1.8742 0.22491-3.7485 1.6025-6.0069 4.367a52.966 52.966 0 0 0-5.3884 8.3029 71.296 71.296 0 0 0-3.6266 8.0124 74.726 74.726 0 0 1-14.057 14.525c-5.9694 4.4326-9.3712 5.6227-11.245 5.8383s-2.5115-0.31862-2.8114-0.72158a3.9546 3.9546 0 0 1-0.93712-2.6708 9.3712 9.3712 0 0 1 1.4806-4.2545c1.0589-1.7712 2.2303-3.5236 3.4861-5.2198l3.5704-4.798c1.2932-1.7524 1.9211-3.0738 1.9492-4.1327a2.5209 2.5209 0 0 0-1.4432-2.3522 8.734 8.734 0 0 0-1.8742-0.70284 14.994 14.994 0 0 0 4.039-1.5837 6.7192 6.7192 0 0 0 3.3362-5.857c0.12183-3.3643-1.5744-5.8757-5.0136-7.497-3.205-1.4806-7.2439-1.9586-12.033-1.4057a43.042 43.042 0 0 0-11.948 3.2799 69.628 69.628 0 0 0-11.358 6.2318 82.663 82.663 0 0 0-10.308 8.2279 75.907 75.907 0 0 0-8.509 9.3712 52.713 52.713 0 0 0-5.8476 9.4368 22.257 22.257 0 0 0-2.3709 8.7246c-0.14057 3.964 1.1995 6.8222 3.9734 8.509a15.172 15.172 0 0 0 9.0994 1.818c0.33736 0 0.68409-0.0562 1.0402-0.10308a29.266 29.266 0 0 0 13.41-5.4072 89.617 89.617 0 0 0 10.44-8.8745 8.1623 8.1623 0 0 0 3.2424 5.7914c2.2959 1.8742 5.8289 2.5583 10.561 1.9961a34.196 34.196 0 0 0 10.093-2.877 51.176 51.176 0 0 0 9.8772-5.9226 61.007 61.007 0 0 0 7.5532-6.8035 11.686 11.686 0 0 0 3.5517 7.675c2.6052 2.5583 6.1662 3.6079 10.618 3.0831a20.373 20.373 0 0 0 7.0378-2.2022 35.611 35.611 0 0 0 6.2974-4.2733 52.179 52.179 0 0 0 5.7633-5.7539l0.58101-0.67472a8.987 8.987 0 0 0 2.7458 7.0378c2.0148 1.9305 5.5665 2.6146 10.73 2.0054a34.355 34.355 0 0 0 10.186-2.9613 54.662 54.662 0 0 0 10.027-5.9976 62.6 62.6 0 0 0 7.9655-7.1034 12.426 12.426 0 0 0 3.1862 8.181c2.2866 2.4272 6.0538 3.3924 11.245 2.8957 4.6856-0.85278 10.833-3.9734 18.077-12.286 1.1152-1.2838 0.52478-2.399-3.1581 0.12183l-0.2905 0.20616c-0.46856 0.328-0.93712 0.69347-1.5275 1.1433h-0.10308c-0.44982 0.29988-0.93712 0.65598-1.3495 0.93712a14.825 14.825 0 0 1-6.0163 2.2304 4.6106 4.6106 0 0 1-3.561-0.72159c-1.3213-1.0589-1.9305-3.2705-1.818-6.5598a32.368 32.368 0 0 1 0.76844-5.8476c0.41234-1.8742 0.93712-3.9453 1.6306-6.0351a115.51 115.51 0 0 0 11.967-9.9054 151.9 151.9 0 0 0 11.339-11.892c3.4954-4.0765 6.766-8.2654 9.6992-12.436 2.9332-4.1702 5.5009-8.1155 7.6375-11.826a79.159 79.159 0 0 0 5.0323-10.252 24.365 24.365 0 0 0 1.9492-7.7219 13.766 13.766 0 0 0-0.26239-3.0925m-173.75 83.929c-3.0831 3.4111-6.3443 6.7285-9.6711 9.8679a91.753 91.753 0 0 1-9.9335 8.1717c-3.0644 2.1554-5.7539 3.383-8.003 3.636a2.3615 2.3615 0 0 1-1.8742-0.29988 3.2331 3.2331 0 0 1-0.72158-2.6052 19.68 19.68 0 0 1 1.5837-6.4568 44.448 44.448 0 0 1 4.1983-7.8812 80.667 80.667 0 0 1 6.185-8.1623 64.942 64.942 0 0 1 7.3564-7.2814 46.481 46.481 0 0 1 7.825-5.351 21.451 21.451 0 0 1 7.497-2.4553l0.73095-0.0562c2.071-0.15931 3.4955 0.14994 4.2452 0.93712a4.7981 4.7981 0 0 1 1.3401 3.7485 11.62 11.62 0 0 1-0.93712 3.9734l-0.27177 0.68409-1.0402-0.0656-0.66536 0.7778c-2.0992 2.4365-4.7418 5.4166-7.8437 8.8558m164.99-77.144c-0.0469 1.2651-0.66535 3.889-3.3924 9.1369a131.2 131.2 0 0 1-8.9682 14.46 190.61 190.61 0 0 1-12.773 16.128c-2.8863 3.2799-5.8195 6.3537-8.7902 9.1838 0.93712-2.0242 2.0148-4.0858 3.1112-6.1662 2.3522-4.3951 4.8449-8.6965 7.4407-12.82s5.2947-8.1155 8.003-11.845c2.7083-3.7297 5.201-7.0097 7.497-9.8116a76.928 76.928 0 0 1 5.9413-6.6161 19.558 19.558 0 0 1 1.9305-1.6493z"/>
  <path d="m337.18 44.823-24.834 83.226a0.89026 0.89026 0 0 1-1.7149-0.44045l18.171-84.931a4.3295 4.3295 0 0 1 8.4341 1.8086c0 0.11245-0.0562 0.23428-0.0843 0.33736"/>
  <path d="m287.11 47.803-7.6938-34.533 2.1741 0.60913c-0.65598 0.75907-1.3963 1.4525-2.0992 2.1741l-2.146 2.1366-4.292 4.2826-8.5653 8.5559-17.149 17.121 16.184-18.03 8.0873-9.0245 4.0484-4.5075 2.0242-2.2491c0.67473-0.7497 1.3307-1.5181 2.0523-2.221v-0.04686a1.2745 1.2745 0 0 1 1.7993 0 1.3026 1.3026 0 0 1 0.33737 0.6185l7.3658 34.598a1.1152 1.1152 0 0 1-2.1741 0.47793"/>
  <path d="m288.99 51.252h-0.0562"/>
  <path d="m244.99 50.605"/>
  <path d="m266.76 52.526c10.561 0 19.614-0.6841 22.182-1.5462-5.8757 3.3268-15.097 6.9628-24.103 6.9815-9.0057 0.01874-15.678-3.5892-19.183-6.8878 1.9492 0.84341 10.543 1.4619 21.104 1.4525"/>
  <path d="m394.74 103.91-7.9749-39.678 2.2397 0.56227c-0.64662 0.87152-1.3776 1.6774-2.0898 2.5021l-6.3818 7.3939-8.4809 9.8679-17.037 19.68 24.009-30.925 4.0015-5.1354 2.0054-2.5771c0.66535-0.85278 1.3213-1.7243 2.0429-2.5396a1.2745 1.2745 0 0 1 2.2022 0.60913l7.6563 39.734a1.1174 1.1174 0 0 1-2.1929 0.43108"/>
  <path d="m396.64 107.39h-0.0562"/>
  <path d="m352.64 106.73"/>
  <path d="m374.42 108.65c10.552 0 19.605-0.6841 22.172-1.5369-5.8758 3.3268-15.097 6.9628-24.112 6.9722-9.0151 9e-3 -15.669-3.5798-19.173-6.8878 1.9492 0.85278 10.552 1.4713 21.113 1.4525"/>
  <path d="m270.66 133.36 1.5837 0.44982c0.51542 0.10308 1.1339 0.24365 1.8742 0.38422 0.74033 0.14057 1.6118 0.2905 2.5958 0.39359 1.9492 0.28113 4.3576 0.44982 7.1034 0.63724 2.7458 0.18742 5.857 0.22491 9.2587 0.27176 3.4018 0.0469 7.0753-0.0562 10.964-0.14994 3.889-0.0937 7.9843-0.36547 12.183-0.60912 2.1179-0.14057 4.2733-0.29051 6.4568-0.48731l6.5598-0.61849c4.4232-0.44045 8.9026-1.0027 13.345-1.7149a124.8 124.8 0 0 0 13.035-2.6146 44.794 44.794 0 0 0 5.8664-1.9867 7.6844 7.6844 0 0 0 2.0054-1.1808l0.0937-0.0844a0.86215 0.86215 0 0 0-0.11245 0.41234 2.0336 2.0336 0 0 0 0 0.33736v0.0843c-0.10309-0.24365 0.15931 0.39359 0.12182 0.30925l-0.0843-0.18742-0.0843-0.17806a0.28114 0.28114 0 0 0 0 0.1312c0 0.075 0.17805 0.20617 0.10308 0.14994a5.932 5.932 0 0 0-1.7805-0.99335c-0.83404-0.32799-1.743-0.60913-2.6614-0.87152a56.499 56.499 0 0 0-5.6227-1.1995c-3.7485-0.6185-7.3939-1.0308-10.758-1.3401-6.7379-0.59039-12.417-0.84341-16.381-1.0027l-6.2506-0.22491a1.1901 1.1901 0 0 1-1.1527-1.2276 1.2089 1.2089 0 0 1 1.0871-1.1527l1.64-0.14994c1.0777-0.0843 2.652-0.23428 4.6856-0.34673 4.0109-0.24365 9.7554-0.50604 16.681-0.29988 3.4673 0.10309 7.2252 0.29988 11.245 0.8153 2.0054 0.26239 4.0671 0.58101 6.2037 1.0683a27.176 27.176 0 0 1 3.2987 0.98398 13.513 13.513 0 0 1 1.7524 0.78718 7.7406 7.7406 0 0 1 0.93712 0.56227c0.16868 0.12183 0.32799 0.22491 0.4873 0.35611 0.15931 0.13119 0.34673 0.30925 0.51542 0.46856a4.4326 4.4326 0 0 1 0.6185 0.74969c0.10308 0.14994 0.20616 0.328 0.28113 0.45919l0.0937 0.17806 0.0843 0.17805a3.8047 3.8047 0 0 1 0.14994 0.40296v0.14057l0.0562 0.28113a3.2987 3.2987 0 0 1 0.0656 1.1339 4.3857 4.3857 0 0 1-0.6185 1.9305c-0.14994 0.2249-0.29988 0.44981-0.45919 0.66535a6.0444 6.0444 0 0 1-0.46856 0.49667 12.454 12.454 0 0 1-3.5048 2.3147 40.099 40.099 0 0 1-6.7379 2.3615 126.77 126.77 0 0 1-13.663 2.7364c-4.5825 0.63725-9.1744 1.1152-13.691 1.4713-2.2678 0.17806-4.5076 0.31862-6.7379 0.41234-2.2303 0.0937-4.3951 0.16868-6.5598 0.2249-4.3201 0.10309-8.4903 0.0656-12.436-0.0562-3.9453-0.12183-7.6844-0.35611-11.133-0.65599-3.4486-0.29988-6.5598-0.70284-9.3712-1.1433-2.8114-0.44045-5.1823-0.93712-7.1409-1.4619-0.98397-0.22491-1.8742-0.52479-2.6052-0.74033l-1.8742-0.68409-1.4994-0.67473a0.40296 0.40296 0 0 1-0.20617-0.52479 0.39359 0.39359 0 0 1 0.47793-0.21553"/>
  <path d="m330.37 45.929-3.2987-3.3924c-1.059-1.1058-2.3428-2.3615-3.8141-3.8047l-2.3616-2.3053-2.6708-2.5209c-1.8649-1.7524-3.9546-3.6267-6.1475-5.5009l-3.4205-2.9332c-1.1808-0.98398-2.399-1.9773-3.6267-2.9894-1.2276-1.0121-2.5302-1.9961-3.8234-3.0082-1.2932-1.0121-2.6427-1.9773-3.9828-2.98-2.727-1.8742-5.5103-3.8797-8.4341-5.6227a63.068 63.068 0 0 0-8.8277-4.62 22.191 22.191 0 0 0-2.2116-0.76844l-0.14057-0.046856h-0.075l-0.30925-0.056227-0.60913-0.12183a2.8114 2.8114 0 0 0-0.50604-0.056227h-0.45919a3.3736 3.3736 0 0 0-1.6868 0.38422c-0.2624 0.093712-0.40297 0.31862-0.60913 0.47793a3.4673 3.4673 0 0 0-0.42171 0.73095 7.2346 7.2346 0 0 0-0.14056 4.0484 19.97 19.97 0 0 0 1.3401 4.1608 29.585 29.585 0 0 0 1.9492 3.7485 34.983 34.983 0 0 0 2.2585 3.2518 35.507 35.507 0 0 0 9.1182 8.2748 19.23 19.23 0 0 0 3.1206 1.5181c0.75907 0.24365 1.1808 0.3561 1.1808 0.3561s-0.4217-0.07497-1.2089-0.27176a18.48 18.48 0 0 1-3.2518-1.312 36.079 36.079 0 0 1-9.8304-7.7875 37.597 37.597 0 0 1-2.5958-3.2331 32.284 32.284 0 0 1-2.3147-3.7485 22.266 22.266 0 0 1-1.7805-4.4607 9.4743 9.4743 0 0 1-0.0937-5.4259 5.8476 5.8476 0 0 1 0.71221-1.4338 5.1916 5.1916 0 0 1 1.2089-1.1433 5.0042 5.0042 0 0 1 1.4619-0.70284 8.4341 8.4341 0 0 1 1.5181-0.27176h1.5181l0.6185 0.084341h0.72158a22.941 22.941 0 0 1 2.5958 0.70284 65.542 65.542 0 0 1 9.6617 4.1889c3.1206 1.5837 6.1194 3.383 9.062 5.1635 1.4432 0.93712 2.8957 1.818 4.292 2.7551s2.8114 1.8742 4.1233 2.8114l3.8984 2.8395 3.7485 2.7458c2.3709 1.8742 4.6294 3.5517 6.6442 5.2198 1.0121 0.83404 1.9867 1.6212 2.9144 2.3709l2.6239 2.1929c1.6306 1.3776 3.055 2.5958 4.1608 3.5985l3.5517 3.1487a3.9921 3.9921 0 0 1 0.36548 5.5665 3.8234 3.8234 0 0 1-5.4634 0.37485l-0.20617-0.1968"/>
  <path d="m382.27 52.039 0.99335 0.57164a31.403 31.403 0 0 1 2.8114 1.8742 39.996 39.996 0 0 1 4.039 3.2893 37.485 37.485 0 0 1 4.5825 5.1167l1.0308 1.5181c0.34673 0.58101 0.73095 1.1714 1.0589 1.7899a20.148 20.148 0 0 1 1.6774 4.0765l0.25302 1.1901c0.075 0.41233 0.0843 0.86215 0.12183 1.2932a10.149 10.149 0 0 1-0.0656 1.3963 8.0686 8.0686 0 0 1-0.39359 1.4806 5.4728 5.4728 0 0 1-0.85278 1.4338 4.6856 4.6856 0 0 1-0.58102 0.63724c-0.21553 0.17805-0.44044 0.3561-0.67472 0.52479a8.6028 8.6028 0 0 1-1.4713 0.73095 13.972 13.972 0 0 1-1.4806 0.32799c-0.46856 0-0.93712 0.09371-1.415 0.09371h-1.4619c-0.76844-0.1312-1.4525-0.18742-2.3241-0.41233-0.87152-0.22491-1.6962-0.39359-2.4459-0.63724s-1.5744-0.45919-2.3334-0.73095a92.166 92.166 0 0 1-9.0432-3.6641l-2.2116-1.0215-2.1741-1.0871c-1.4525-0.70284-2.8582-1.4713-4.2639-2.2116-2.8114-1.5088-5.529-3.0644-8.1248-4.62-1.3026-0.76844-2.5677-1.5556-3.7953-2.3334-1.2276-0.77781-2.4553-1.5181-3.5985-2.2866-2.3241-1.5181-4.5076-2.9707-6.4849-4.3576-1.9773-1.3869-3.7953-2.6614-5.3884-3.8141-1.5931-1.1527-2.9707-2.1647-4.0858-3.0269l-3.5423-2.6708a3.8685 3.8685 0 1 1 4.6856-6.1569l0.14057 0.11246 0.075 0.0656 3.308 2.8114c1.0496 0.93712 2.3428 1.9586 3.8422 3.1487 1.4994 1.1901 3.1768 2.5583 5.0604 3.9828 1.8836 1.4244 3.9172 2.9613 6.1006 4.5544 1.0871 0.81529 2.2304 1.5837 3.3924 2.4084s2.3522 1.64 3.5798 2.4459c2.4459 1.64 5.0042 3.2799 7.6469 4.873 1.3213 0.79655 2.652 1.6025 4.0202 2.3522l2.0429 1.1433 2.071 1.0964a84.153 84.153 0 0 0 8.3778 3.889c0.70284 0.29988 1.4057 0.54353 2.0992 0.78718s1.3588 0.44982 2.0054 0.63724c0.64662 0.18742 1.4432 0.32799 2.1554 0.49667h-0.0656 1.6962c0.28114 0 0.45919-0.08434 0.70284-0.11245 0.24365-0.02811 0.39359-0.11246 0.51542-0.21554a1.5369 1.5369 0 0 1 0.20616-0.1312c0.075 0 0.0937-0.11245 0.14994-0.15931 0.0562-0.04686 0.17805-0.26239 0.29051-0.39359a4.9948 4.9948 0 0 0 0.0937-2.9238 16.709 16.709 0 0 0-1.2089-3.458c-0.24366-0.53416-0.53416-1.0215-0.79656-1.5275l-0.93712-1.5556a34.355 34.355 0 0 0-3.889-4.7512 36.332 36.332 0 0 0-3.5892-3.2331 27.945 27.945 0 0 0-2.5115-1.8086l-0.93712-0.6185a1.3034 1.3034 0 0 1 1.3495-2.2303"/>
  <path d="m70.304 52.873a34.673 34.673 0 0 1-7.6656 3.3736 5.3978 5.3978 0 0 1 3.3174 2.0804 5.5009 5.5009 0 0 1 0.86215 4.1421q-0.80592 3.3455-7.1127 6.2318a28.816 28.816 0 0 1-11.245 2.8114 16.662 16.662 0 0 1-3.9921-0.31862 17.206 17.206 0 0 1-3.3924-1.0402 3.1019 3.1019 0 0 1-1.3963 0.93712 5.9788 5.9788 0 0 1-1.8742 0.33736 9.1088 9.1088 0 0 1-2.0148-0.17805 2.5583 2.5583 0 0 1-1.4525-0.67473 1.4619 1.4619 0 0 1-0.33736-1.162 4.6856 4.6856 0 0 1 0.12182-0.53416 2.399 2.399 0 0 1 0.22491-0.52479q2.9894-4.9011 4.3201-7.0097c1.8742-2.9332 3.458-5.3603 4.8168-7.2533q2.6989-3.8516 5.2479-6.8691a4.5825 4.5825 0 0 1-2.1741-0.4217c-0.62787-0.30925-0.93712-0.67473-0.85278-1.1152a1.7993 1.7993 0 0 1 0.7497-0.70284 6.5598 6.5598 0 0 1 1.4806-0.64661 26.342 26.342 0 0 1 3.4392-0.7497 3.964 3.964 0 0 1 1.1245-1.1901 2.8582 2.8582 0 0 1 1.5181-0.4217 4.6856 4.6856 0 0 1 2.4178 0.93712c1.0027-0.11245 1.9492-0.18742 2.8114-0.21554l2.8114-0.07497 3.2987-0.09371a10.533 10.533 0 0 1 6.5598 1.565 4.2826 4.2826 0 0 1 2.0336 4.2826c-0.38422 1.6587-1.6025 3.1581-3.636 4.4888m-10.496 6.3724a14.057 14.057 0 0 0-4.1983-0.36548q-1.4525 0-3.6548 0.30925c-1.4619 0.17805-2.6708 0.34674-3.6173 0.51542q-1.4713 1.9867-2.6146 3.5048l-2.5209 3.5611a14.76 14.76 0 0 0 1.7993 0.32799 14.994 14.994 0 0 0 2.221 0.07497 24.262 24.262 0 0 0 8.6684-2.2772c3.3455-1.4432 5.1073-2.8114 5.2854-4.114 0.09371-0.73095-0.35611-1.2464-1.3682-1.5369m7.8437-12.248c0.08434-0.56227-0.30925-0.93712-1.162-1.0964a16.175 16.175 0 0 0-3.383-0.17805c-0.1968 0-0.66536 0-1.3776 0.07497l-1.4338 0.08434c-0.99335 0.93712-2.1554 2.2303-3.4861 3.7485l-3.2518 3.8047a33.596 33.596 0 0 0 6.9815-1.5931 15.125 15.125 0 0 0 6.9441-4.3951 1.6118 1.6118 0 0 0 0.15931-0.44982"/>
  <path d="m106.99 43.586a1.6962 1.6962 0 0 1-1.1152 0.36548c-2.0336 0.07497-3.8516 0.15931-5.4634 0.28114-1.6118 0.12183-3.308 0.32799-5.1073 0.59976a64.718 64.718 0 0 0-4.6294 5.1823q-1.8742 2.3709-4.114 5.4634h2.3615c1.5369 0 2.8114 0 3.9078-0.0656a9.6992 9.6992 0 0 1 2.2678 0.22491c0.73095 0.16868 1.1433 0.44982 1.2183 0.85278a0.93712 0.93712 0 0 1-0.24365 0.74032 0.93712 0.93712 0 0 1-0.74032 0.33736 57.792 57.792 0 0 0-11.245 1.4244q-2.9238 4.0858-5.529 8.1717c1.2839-0.14994 2.474-0.25302 3.5611-0.32799 1.0871-0.07497 2.474-0.1312 4.1702-0.18742h3.0363c1.0215 0 2.0898-0.0656 3.1487-0.08434 1.0589-0.01874 1.3588 0.25302 1.2839 0.85278a1.3495 1.3495 0 0 1-0.64661 0.88089 3.308 3.308 0 0 1-1.5369 0.51542c-1.8742 0.04686-3.8703 0.1968-5.932 0.43108s-5.2104 0.69347-9.4837 1.3963a2.4178 2.4178 0 0 1-1.0215 0.22491 6.1288 6.1288 0 0 1-2.6146-0.57164 6.3724 6.3724 0 0 1-2.221-1.5181c-0.53416-0.58101-0.77781-1.0121-0.74032-1.312a4.8355 4.8355 0 0 1 0.79655-1.5181q2.6614-3.7485 5.2291-7.7594 2.0054-3.0925 4.8168-7.7031l4.6856-7.75a4.1889 4.1889 0 0 1 1.312-1.1058 3.6079 3.6079 0 0 1 1.5181-0.33736 5.0792 5.0792 0 0 1 1.7524 0.26239l4.2452-0.12183c2.2959-0.0656 4.6294-0.10308 6.9815-0.12182 2.3522-0.01874 4.0577 0 5.1167 0.09371 1.0589 0.09371 1.5181 0.50604 1.415 1.2932a1.4244 1.4244 0 0 1-0.49667 0.93712"/>
  <path d="m144.34 42.171a6.7566 6.7566 0 0 1-2.1835 0.4873l-8.3029 1.0496a119.86 119.86 0 0 0-9.0526 11.058c-2.4834 3.4111-5.0136 7.2346-7.6094 11.433l-0.75907 1.9586c-0.37485 0.58101-1.4057 0.93712-3.0644 0.93712a4.5075 4.5075 0 0 1-3.1768-0.79655 1.4619 1.4619 0 0 1-0.46856-1.64c1.9961-3.8047 4.0858-7.497 6.2318-11.049 2.146-3.5517 4.5076-7.1221 7.0471-10.702-0.29988 0-1.415 0.0656-3.3549 0.18742-1.9398 0.12182-3.2893 0.16868-4.0577 0.18742-1.1808-0.09371-2.2491-0.20617-3.1862-0.34674-1.7899-0.27176-2.5958-0.65598-2.4271-1.1808 0.075-0.32799 0.53415-0.67473 1.3588-1.0496a10.908 10.908 0 0 1 2.6708-0.80592 121.9 121.9 0 0 1 12.82-1.5369q7.6-0.5529 13.551-0.73095 5.4447-0.14994 5.2291 1.4244c-0.0562 0.44045-0.47793 0.8153-1.2651 1.1152"/>
  <path d="m180.02 41.281a6.5598 6.5598 0 0 1-2.1741 0.4873l-8.3123 1.0496a119.95 119.95 0 0 0-9.0432 11.067q-3.7485 5.1354-7.6188 11.423l-0.75907 1.968c-0.37485 0.57164-1.3963 0.93712-3.055 0.93712a4.5638 4.5638 0 0 1-3.1862-0.80592 1.4806 1.4806 0 0 1-0.46856-1.64q3.0082-5.7071 6.2412-11.049 3.2331-5.3416 7.0378-10.693c-0.29988 0-1.415 0.0656-3.3549 0.18742-1.9398 0.12182-3.2893 0.15931-4.0577 0.18742-1.1808-0.09371-2.2397-0.20617-3.1862-0.35611-1.7805-0.26239-2.5865-0.65598-2.4272-1.1714 0.0844-0.32799 0.53416-0.6841 1.3588-1.0589a10.458 10.458 0 0 1 2.6802-0.79655 119.51 119.51 0 0 1 12.81-1.5275q7.6188-0.57164 13.551-0.74032 5.4447-0.16868 5.2385 1.4244c-0.0656 0.43108-0.4873 0.80592-1.2745 1.1058"/>
  <path d="m206.8 40.878a1.7524 1.7524 0 0 1-1.1152 0.37485q-3.055 0.09371-5.4634 0.29051c-1.6118 0.12182-3.308 0.32799-5.0979 0.59038a58.832 58.832 0 0 0-4.6388 5.1916c-1.2745 1.5744-2.652 3.3924-4.114 5.454h2.3615q2.3241 0 3.9078-0.05623a9.568 9.568 0 0 1 2.2585 0.20617c0.74032 0.17805 1.1527 0.45919 1.2276 0.86215a0.87152 0.87152 0 0 1-0.24365 0.73095 0.93712 0.93712 0 0 1-0.74033 0.34673 57.164 57.164 0 0 0-11.292 1.4244q-2.877 4.0952-5.4728 8.1717c1.2745-0.14057 2.4646-0.25302 3.5517-0.32799s2.474-0.1312 4.1796-0.18742c0.99335 0 2.0054 0 3.0363-0.04686s2.0804-0.05623 3.1394-0.08434c1.059-0.02811 1.3588 0.25302 1.2839 0.84341a1.3401 1.3401 0 0 1-0.64661 0.93712 3.1675 3.1675 0 0 1-1.5369 0.50604q-2.8114 0.08434-5.9226 0.44045c-2.0617 0.23428-5.2198 0.69347-9.493 1.3963a2.6052 2.6052 0 0 1-1.0215 0.22491 6.0819 6.0819 0 0 1-2.6052-0.57164 6.4568 6.4568 0 0 1-2.221-1.4713c-0.53416-0.58101-0.77781-1.0121-0.74033-1.3213a5.0417 5.0417 0 0 1 0.79655-1.5181q2.6614-3.7485 5.2291-7.75c1.3401-2.0617 2.9519-4.62 4.8262-7.7031 1.565-2.5771 3.1487-5.1635 4.6856-7.7406a4.0296 4.0296 0 0 1 1.3213-1.1152 3.6829 3.6829 0 0 1 1.5088-0.34673 4.8449 4.8449 0 0 1 1.7524 0.27176l4.2545-0.12182c2.2866-0.0656 4.62-0.10308 6.9722-0.12183 2.3522-0.01874 4.0577 0 5.1073 0.09371s1.5275 0.50604 1.4244 1.3026a1.3401 1.3401 0 0 1-0.49667 0.87152"/>
  <path d="m235.31 44.926c-0.53416 1.7712-2.0523 3.4017-4.545 4.9105a66.798 66.798 0 0 1-8.3216 3.7953c0.21554 1.3682 0.56227 2.9988 1.0308 4.9105q0.52479 2.0429 1.3401 4.7699a1.8742 1.8742 0 0 1-0.88089 1.5369 7.7875 7.7875 0 0 1-2.4553 1.0402c-0.53415 0.0656-0.93712 0.11246-1.2089 0.12183a6.1569 6.1569 0 0 1-1.64-0.15931 1.3495 1.3495 0 0 1-0.93712-0.66536 53.585 53.585 0 0 0-2.4553-5.0136 45.61 45.61 0 0 0-3.1112-4.9293l-5.6227 8.4903a3.8328 3.8328 0 0 1-1.4525 2.1554 4.545 4.545 0 0 1-2.5115 0.74032 6.8691 6.8691 0 0 1-0.84341 0l-0.74032-0.08434c-2.0523-0.26239-2.9894-1.0402-2.8114-2.3053a7.0753 7.0753 0 0 1 0.19679-0.74032c2.3709-4.1702 5.0323-8.3029 7.8437-12.501q3.8422-5.6227 9.0338-12.445a3.4299 3.4299 0 0 1 1.2745-1.1058 2.7176 2.7176 0 0 1 1.6681-0.39359 43.942 43.942 0 0 1 7.497 0.34673 18.021 18.021 0 0 1 7.0846 2.2491 5.1542 5.1542 0 0 1 2.5677 5.3135m-5.8383-0.93712c0.23428-0.8153-0.35611-1.4057-1.7805-1.7712a20.008 20.008 0 0 0-5.4353-0.44982q-3.7485 4.5919-6.8597 8.8183a56.227 56.227 0 0 0 9.0338-3.1768q4.6106-2.1085 5.0417-3.4205"/>
  <path d="m153.71 85.129a12.286 12.286 0 0 1-1.5369 4.5731 14.685 14.685 0 0 1-3.6454 3.9453 7.5907 7.5907 0 0 1-4.3201 1.4244 4.8449 4.8449 0 0 1-2.877-0.65598 1.9867 1.9867 0 0 1-0.88089-2.1085 17.543 17.543 0 0 0 2.4459-2.2585q2.2491-2.3334 2.3803-3.2987 0.0843-0.6185-0.56228-0.59039a5.4166 5.4166 0 0 0-1.9773 0.65598c-0.46856 0.26239-0.93712 0.50604-1.3963 0.73095q-8.4341 6.0351-12.286 11.808a27.879 27.879 0 0 0-1.64 2.5583 9.6898 9.6898 0 0 0-1.2651 3.1019 1.7056 1.7056 0 0 0 0.25302 1.2745 2.5583 2.5583 0 0 0 1.3869 0.80593 7.2065 7.2065 0 0 0 2.2678 0.28113 22.022 22.022 0 0 0 7.0003-1.6962 26.595 26.595 0 0 0 5.4353-2.7176 2.8114 2.8114 0 0 1 1.4057-0.47793c0.59976 0 0.87152 0.19679 0.80592 0.65598a1.7805 1.7805 0 0 1-0.83403 1.0777 35.939 35.939 0 0 1-6.916 4.0109 20.167 20.167 0 0 1-7.3002 1.7899 22.144 22.144 0 0 1-7.497-0.81529q-2.8114-0.93712-3.458-2.549a3.7485 3.7485 0 0 1-0.31862-1.3026 6.0351 6.0351 0 0 1 0-1.312 8.2748 8.2748 0 0 1 0.35611-1.5744 17.196 17.196 0 0 1 0.86215-1.9398 45.45 45.45 0 0 1 8.4341-11.826q5.8945-6.0351 11.639-8.1436a4.6856 4.6856 0 0 1 1.5275-0.1968 22.032 22.032 0 0 1 3.6454 0.23428 13.523 13.523 0 0 1 3.3643 0.80592 9.3712 9.3712 0 0 1 4.2452 1.4151 2.6708 2.6708 0 0 1 1.2558 2.3147"/>
  <path d="m180.11 93.638a108.34 108.34 0 0 0-2.3334 12.548c0 0.26239-0.59039 0.59976-1.8742 0.99335a8.4997 8.4997 0 0 1-3.0831 0.52478 6.8316 6.8316 0 0 1-2.877-0.44044c-0.74969-0.32799-1.0871-0.7497-1.0215-1.2651a1.3026 1.3026 0 0 1 0.27177-0.58102l1.0121-5.6227c-3.0738 0.6185-5.529 1.1714-7.3845 1.6212-2.399 0.59039-4.8636 1.237-7.3751 1.9586l-4.8168 5.0698a1.0402 1.0402 0 0 1-0.67473 0.27176 2.3522 2.3522 0 0 1-1.4994-0.54353 1.3307 1.3307 0 0 1-0.64661-1.2557 1.2464 1.2464 0 0 1 0.32799-0.6185q13.532-13.654 28.779-26.764l0.0937-0.29051a14.994 14.994 0 0 1 2.9426-0.44982 6.3443 6.3443 0 0 1 3.2893 0.67473 14.057 14.057 0 0 1 2.2303 0.05623c0.39359 0.0656 0.57165 0.21554 0.54353 0.43108a3.7485 3.7485 0 0 1-0.53416 0.93712c-0.32799 0.51542-0.59975 0.93712-0.81529 1.3026a44.907 44.907 0 0 0-4.5825 11.414m-10.768-3.1206c-1.3401 1.1433-3.0363 2.6427-5.0792 4.5169-1.4057 1.2745-2.9988 2.8114-4.7887 4.5075 2.2397-0.66536 4.0858-1.1433 5.5384-1.4619s3.4299-0.69347 5.9507-1.1433c0.57164-2.0336 1.1152-3.7485 1.6118-5.2666a48.496 48.496 0 0 1 2.1741-5.4353c-2.0336 1.5462-3.8328 2.9613-5.4072 4.2826"/>
  <path d="m210.24 80.977a114.66 114.66 0 0 0-8.7433 10.693q-3.6735 5.0417-7.0846 10.852c1.0402-0.11245 2.4178-0.21554 4.1327-0.29051 1.7149-0.075 2.6989-0.12182 2.9332-0.12182l4.1421-0.12183a2.4459 2.4459 0 0 1 1.565 0.37485 1.0871 1.0871 0 0 1 0.44045 1.0215c-0.12183 0.83404-0.83404 1.3963-2.1741 1.6774q-6.5598 0.80592-11.358 1.6306c-2.474 0.4217-4.6856 0.86215-6.4942 1.3213-0.17806 0-0.44045 0-0.80593 0.0656a4.0858 4.0858 0 0 1-2.1554-0.41233 1.2839 1.2839 0 0 1-0.63724-1.415 4.0952 4.0952 0 0 1 0.58101-1.3401q2.8114-3.6923 6.8597-9.8772 3.3362-5.1448 6.0913-9.7835c1.8742-3.0831 3.0175-5.1729 3.5329-6.2693 0.0469-0.37485 0.58101-0.74032 1.5931-1.0777a10.233 10.233 0 0 1 2.9519-0.5529 16.09 16.09 0 0 1 3.7485 0.21554c1.2464 0.31862 1.818 0.93712 1.6962 1.7712a3.8703 3.8703 0 0 1-0.81529 1.64"/>
  <path d="m241.38 80.125a116.2 116.2 0 0 0-8.7527 10.693q-3.6641 5.0511-7.0846 10.842 1.5556-0.16868 4.1327-0.28114l2.9332-0.13119 4.1421-0.11246a2.3241 2.3241 0 0 1 1.565 0.37485 1.0402 1.0402 0 0 1 0.43107 1.0215c-0.10308 0.83404-0.83403 1.3963-2.1647 1.6774-4.3764 0.52478-8.1717 1.0683-11.358 1.6212-2.474 0.42171-4.6387 0.87153-6.4942 1.3213a4.8074 4.8074 0 0 1-0.80592 0.0656 3.9172 3.9172 0 0 1-2.1554-0.40296 1.2932 1.2932 0 0 1-0.63724-1.415 4.3014 4.3014 0 0 1 0.58101-1.3494q2.8114-3.6829 6.8597-9.8679c2.221-3.4299 4.2545-6.7004 6.0913-9.7835 1.8368-3.0831 3.0269-5.1729 3.533-6.2787 0.0562-0.36548 0.58101-0.73095 1.5931-1.0683a10.177 10.177 0 0 1 2.9613-0.5529 15.537 15.537 0 0 1 3.7485 0.21554c1.2464 0.31862 1.818 0.93712 1.6962 1.7712a3.8703 3.8703 0 0 1-0.8153 1.64"/>
  <path class="cls-1" d="m83.302 84.717c-3.0925-2.1835-8.1811-2.7177-15.313-1.6118a68.054 68.054 0 0 0-20.701 6.5599 66.658 66.658 0 0 0-15.631 10.908 49.536 49.536 0 0 0-9.8304 12.67c-2.296 4.3857-3.4205 8.481-3.3362 12.183a12.604 12.604 0 0 0 4.5169 9.8117 34.495 34.495 0 0 0 10.243 5.7164 118.41 118.41 0 0 0 12.764 3.9078c4.3857 1.0871 8.5653 2.3522 12.398 3.7485a32.106 32.106 0 0 1 9.3712 5.0324 9.2963 9.2963 0 0 1 3.5517 7.497 11.911 11.911 0 0 1-2.3428 7.3939 25.152 25.152 0 0 1-6.7004 6.2881 47.1 47.1 0 0 1-9.6336 4.77 57.333 57.333 0 0 1-10.974 2.8114 39.978 39.978 0 0 1-11.049 0.40297 19.52 19.52 0 0 1-7.497-2.3334 12.351 12.351 0 0 1-4.4045-4.2639 11.377 11.377 0 0 1-1.5931-5.6696 18.396 18.396 0 0 1 2.0429-8.3685 30.363 30.363 0 0 1 6.4474-8.5091l3.3736-3.205-4.7606 0.7497a41.355 41.355 0 0 0-7.7969 2.071 29.416 29.416 0 0 0-7.497 4.0577 21.676 21.676 0 0 0-5.6227 6.438 17.252 17.252 0 0 0-2.1554 9.1182 16.006 16.006 0 0 0 3.4955 10.065 20.729 20.729 0 0 0 8.6965 6.1007 39.256 39.256 0 0 0 11.883 2.4084 63.884 63.884 0 0 0 10.805-0.35611c1.0027-0.11246 2.0242-0.25302 3.0456-0.41233a82.008 82.008 0 0 0 16.156-4.3295 69.019 69.019 0 0 0 14.666-7.5532 42.302 42.302 0 0 0 10.693-10.308 21.067 21.067 0 0 0 4.0484-12.82 15.275 15.275 0 0 0-4.3764-10.964 30.981 30.981 0 0 0-10.121-6.4849 80.18 80.18 0 0 0-12.679-3.9359c-4.3482-0.93713-8.4341-2.0804-12.248-3.2706a33.296 33.296 0 0 1-9.1557-4.2826 7.3564 7.3564 0 0 1-3.3549-6.2225c-0.05623-2.3053 0.76844-5.1073 2.4459-8.331a40.484 40.484 0 0 1 7.3283-9.7554 52.638 52.638 0 0 1 11.349-8.4341 41.796 41.796 0 0 1 14.122-4.8824c0.50605-0.08434 0.93712-0.14994 1.4432-0.1968 3.1581-0.36548 4.4326 0 4.9105 0.25302a2.5677 2.5677 0 0 1 1.4057 2.4365 15.266 15.266 0 0 1-1.2932 5.8102c-0.93712 2.3522-2.0523 4.8262-3.2893 7.3564s-2.399 5.1073-3.3924 7.572a17.609 17.609 0 0 0-1.4994 6.7754 5.5103 5.5103 0 0 0 1.7899 4.1983c1.1714 1.0308 3.0269 1.565 5.529 1.5744h1.0589l0.59976-0.82467c1.3588-1.8086 2.8114-3.9734 4.3108-6.4287a82.345 82.345 0 0 0 4.1889-7.7125 56.34 56.34 0 0 0 3.1581-8.1998 25.565 25.565 0 0 0 1.1808-7.7875 11.058 11.058 0 0 0-4.77-9.2213" fill="#f33"/>
  <path class="cls-2" d="m276.08 140.37c-0.54353 0.41233-1.0964 0.76844-1.64 1.1433h0.10308c0.57165-0.44982 1.059-0.80593 1.5369-1.1339" fill="#001522"/>
  <path class="cls-1" d="m311.46 58.393a11.517 11.517 0 0 0-1.1339-3.2799 8.3685 8.3685 0 0 0-2.0523-2.5396 4.6856 4.6856 0 0 0-3.6923-1.0121c-2.4646 0.28114-5.4166 2.1085-9.2869 5.7539a125.82 125.82 0 0 0-11.498 12.698c-4.114 5.1167-8.3685 10.908-12.661 17.215s-8.2467 12.764-11.695 19.117a169.73 169.73 0 0 0-8.6871 18.293c-0.62787 1.5556-1.1902 3.13-1.6868 4.6856a54.587 54.587 0 0 1-5.8758 7.4033 62.281 62.281 0 0 1-7.7406 6.9441 46.856 46.856 0 0 1-7.3189 4.5919 17.908 17.908 0 0 1-5.6227 1.8742c-1.4244 0.16869-2.4271 0-2.877-0.4217a3.1581 3.1581 0 0 1-0.77781-2.4928 19.68 19.68 0 0 1 1.8742-6.9441c1.2839-2.8863 2.6802-5.7164 4.1421-8.4341s2.8582-5.1073 4.114-7.1409c1.9492-3.1581 2.1179-3.7485 2.1273-4.2826a2.6146 2.6146 0 0 0-1.7337-2.474 10.093 10.093 0 0 0-2.8676-0.87152 24.759 24.759 0 0 0-2.9894-0.2624c-0.86216 0-1.5088 0-1.9398-0.0656l-1.2089-0.0844-0.63725 0.93713c-1.6868 2.5115-3.8328 5.782-6.3818 9.718-2.549 3.9359-5.2947 7.7781-8.2186 11.536a82.589 82.589 0 0 1-8.8183 9.7367c-2.6989 2.5115-5.1542 3.9078-7.2908 4.1514a2.9988 2.9988 0 0 1-2.071-0.33736 3.4392 3.4392 0 0 1-1.312-1.5556 7.3752 7.3752 0 0 1-0.58101-2.3147 15.865 15.865 0 0 1-0.0937-2.0054 21.751 21.751 0 0 1 1.4244-6.5598 63.171 63.171 0 0 1 3.2331-7.3658 76.404 76.404 0 0 1 3.8891-6.691c1.3401-2.0336 2.474-3.6454 3.383-4.7793l0.93712-1.1714-1.1339-0.82467a10.599 10.599 0 0 0-3.9734-1.6587 12.436 12.436 0 0 0-3.3455-0.40296h-0.18743c-1.8742 0.22491-3.7485 1.6118-6.0163 4.3764a53.069 53.069 0 0 0-5.3791 8.2935 70.387 70.387 0 0 0-3.6267 8.0124 75.27 75.27 0 0 1-14.057 14.525c-5.9695 4.4326-9.4181 5.6227-11.245 5.8383-1.8274 0.21554-2.5115-0.30925-2.8114-0.72158a3.9547 3.9547 0 0 1-0.93712-2.6708 9.3712 9.3712 0 0 1 1.4806-4.2545c1.059-1.7618 2.2304-3.5236 3.4861-5.2198l3.5704-4.7981c1.2932-1.7524 1.8742-3.0644 1.9492-4.1327a2.5209 2.5209 0 0 0-1.4525-2.3522 8.9589 8.9589 0 0 0-1.8274-0.70284 14.769 14.769 0 0 0 4.039-1.5837 6.7192 6.7192 0 0 0 3.3362-5.8476c0.11245-3.3736-1.5744-5.8851-5.023-7.497-3.1956-1.49-7.2346-1.9586-12.033-1.4057a42.349 42.349 0 0 0-11.939 3.2799 69.188 69.188 0 0 0-11.358 6.2225 82.739 82.739 0 0 0-10.308 8.2373 76.019 76.019 0 0 0-8.5184 9.3712 53.8 53.8 0 0 0-5.8476 9.4368 22.585 22.585 0 0 0-2.3709 8.734c-0.1312 3.9547 1.2089 6.8129 3.9828 8.4997a15.172 15.172 0 0 0 9.0995 1.818c0.33736 0 0.6841-0.0562 1.0402-0.10309a29.201 29.201 0 0 0 13.326-5.3322 91.154 91.154 0 0 0 10.43-8.8652 8.1717 8.1717 0 0 0 3.2518 5.7914c2.2866 1.8742 5.8195 2.549 10.561 1.9961a34.299 34.299 0 0 0 10.093-2.8863 51.401 51.401 0 0 0 9.9241-5.9132 61.85 61.85 0 0 0 7.5532-6.8129 11.733 11.733 0 0 0 3.5517 7.6844c2.5958 2.549 6.1569 3.5986 10.618 3.0738a20.167 20.167 0 0 0 7.0378-2.2022 36.276 36.276 0 0 0 6.2975-4.2733 51.204 51.204 0 0 0 5.7539-5.7446l0.58101-0.6841a9.0151 9.0151 0 0 0 2.7551 7.0378c2.0054 1.9305 5.5665 2.6146 10.73 2.0054a34.299 34.299 0 0 0 10.177-2.9613 54.503 54.503 0 0 0 10.027-5.9882 62.122 62.122 0 0 0 7.9749-7.1128 12.379 12.379 0 0 0 3.1862 8.1811c2.2866 2.4272 6.0538 3.3924 11.245 2.8957 4.6856-0.85278 10.833-3.964 18.077-12.286 1.1152-1.2745 0.51542-2.3897-3.1581 0.12183l-0.29051 0.20617c-0.47793 0.33736-0.93712 0.69347-1.5369 1.1433h-0.10308c-0.44982 0.30925-0.89027 0.66535-1.3495 0.93712a14.732 14.732 0 0 1-6.0163 2.2304 4.545 4.545 0 0 1-3.5517-0.72158c-1.3213-1.059-1.9305-3.2706-1.8274-6.5599a32.518 32.518 0 0 1 0.77782-5.857c0.41233-1.8742 0.93712-3.9453 1.6306-6.0351a115.27 115.27 0 0 0 11.967-9.9054 151.9 151.9 0 0 0 11.339-11.892c3.4955-4.0765 6.7566-8.2654 9.6992-12.426 2.9426-4.1608 5.5009-8.1248 7.6375-11.836a77.238 77.238 0 0 0 5.023-10.252 24.599 24.599 0 0 0 1.9586-7.7219 14.338 14.338 0 0 0-0.26239-3.0925m-173.74 83.891c-3.0925 3.4111-6.3443 6.7285-9.6805 9.8773a91.763 91.763 0 0 1-9.9241 8.1623c-3.0644 2.1554-5.7539 3.383-8.003 3.636-1.2932 0.16869-1.7805-0.18742-1.8742-0.29987-0.51542-0.41234-0.76844-1.312-0.72158-2.6052a19.68 19.68 0 0 1 1.5744-6.4568 45.151 45.151 0 0 1 4.2077-7.8812 80.667 80.667 0 0 1 6.185-8.1623 64.868 64.868 0 0 1 7.347-7.2814 46.463 46.463 0 0 1 7.8343-5.3416 21.226 21.226 0 0 1 7.497-2.4646l0.72158-0.0562c2.071-0.15931 3.4955 0.14994 4.2545 0.93713a4.7981 4.7981 0 0 1 1.3401 3.7485 11.845 11.845 0 0 1-0.93712 3.9734l-0.27177 0.6841-1.0402-0.0656-0.66536 0.77782c-2.0992 2.4365-4.7418 5.4166-7.8437 8.8558m164.93-77.069c0 1.2745-0.66536 3.8891-3.383 9.1369a130 130 0 0 1-8.9776 14.469 191.85 191.85 0 0 1-12.764 16.119c-2.8863 3.2799-5.8289 6.3537-8.7902 9.1838 0.93713-2.0242 2.0148-4.0859 3.1112-6.1663 2.3428-4.3857 4.8449-8.6965 7.4408-12.81 2.5958-4.114 5.2947-8.1155 7.9936-11.855 2.6989-3.7391 5.2104-7.0097 7.497-9.8117a75.223 75.223 0 0 1 5.9976-6.6723 20.008 20.008 0 0 1 1.9211-1.6681z" fill="#f33"/>
  <path class="cls-3" d="m335.45 43.155-24.824 83.226a0.89027 0.89027 0 0 1-1.7149-0.44044l18.161-84.922a4.3295 4.3295 0 1 1 8.4341 1.8086c0 0.10308-0.0562 0.22491-0.0937 0.32799" fill="#ff3"/>
  <path class="cls-3" d="m285.38 46.135-7.6844-34.533 2.1741 0.60913c-0.66536 0.75907-1.3963 1.4619-2.1085 2.1741l-2.1366 2.1366-4.292 4.2826-8.5747 8.5372-17.14 17.14 16.184-18.03 8.1061-9.0151 4.039-4.5076 2.0242-2.2585c0.6841-0.7497 1.3401-1.5181 2.0617-2.221h0.0469a1.2651 1.2651 0 0 1 2.1273 0.64662l7.3752 34.599a1.1176 1.1176 0 0 1-2.1835 0.47793" fill="#ff3"/>
  <path class="cls-2" d="m287.28 49.584h-0.0656" fill="#001522"/>
  <path class="cls-2" d="m243.27 48.937" fill="#001522"/>
 </g>
 <g fill="#ff3" stroke-width=".93712">
  <path class="cls-3" d="m265.05 50.896c10.552 0 19.614-0.6841 22.182-1.5369-5.8851 3.3174-15.097 6.9628-24.112 6.9722-9.0151 0.0094-15.697-3.6173-19.183-6.9253 1.9586 0.84341 10.552 1.4619 21.113 1.4525"/>
  <path class="cls-3" d="m393.03 102.24-7.9749-39.668 2.2397 0.5529c-0.65599 0.87152-1.3869 1.6774-2.0898 2.5021l-6.3818 7.3939-8.5184 9.8679-17.037 19.68 24.009-30.925 4.0015-5.1448 2.0242-2.4834c0.66535-0.86215 1.312-1.7337 2.0336-2.5396a1.2745 1.2745 0 0 1 1.7993-0.10308 1.2464 1.2464 0 0 1 0.40296 0.71221l7.6657 39.734a1.1174 1.1174 0 0 1-2.1929 0.43107"/>
  <path class="cls-3" d="m394.92 105.73a0.10308 0.10308 0 0 0-0.0562 0"/>
  <path class="cls-3" d="m350.92 105.06"/>
  <path class="cls-3" d="m372.69 106.98c10.552 0 19.614-0.67473 22.182-1.5369-5.8851 3.3268-15.097 6.9628-24.112 6.9816-9.0151 0.0187-15.669-3.5892-19.174-6.8878 1.9492 0.84341 10.543 1.4619 21.104 1.4432"/>
  <path class="cls-3" d="m268.97 131.66 1.5744 0.44982c0.51542 0.10308 1.1339 0.25302 1.8742 0.38422 0.74032 0.1312 1.6118 0.29051 2.5958 0.39359 1.9492 0.28114 4.3576 0.44982 7.094 0.63724 2.7364 0.18743 5.8664 0.22491 9.2588 0.27177 3.3924 0.0469 7.0846-0.0469 10.964-0.14994 3.8797-0.10308 7.9936-0.35611 12.229-0.60913 2.1179-0.14057 4.2639-0.29051 6.4474-0.4873l6.5598-0.60913c4.4232-0.44982 8.9027-1.0121 13.345-1.7243a124.13 124.13 0 0 0 13.026-2.6146 43.876 43.876 0 0 0 5.8664-1.9773 8.0593 8.0593 0 0 0 2.0054-1.1808l0.10309-0.0937a1.0589 1.0589 0 0 0-0.11246 0.41233v0.34674a0.27177 0.27177 0 0 0 0 0.0843c-0.0937-0.25303 0.15931 0.39359 0.12183 0.29988l-0.0843-0.18743-0.0843-0.17805a0.28114 0.28114 0 0 0 0.0469 0.1312c0 0.0843 0.17805 0.21553 0.10308 0.14994a5.9695 5.9695 0 0 0-1.7805-0.98398c-0.83404-0.328-1.743-0.6185-2.6614-0.8809-1.8742-0.50604-3.7485-0.88089-5.6227-1.1995-3.7485-0.60913-7.4033-1.0215-10.768-1.3401-6.7379-0.59039-12.408-0.84341-16.381-1.0027l-6.2412-0.21554a1.2089 1.2089 0 0 1-1.1527-1.237 1.1808 1.1808 0 0 1 1.0871-1.1433l1.64-0.14994c1.0683-0.0937 2.6427-0.24365 4.6856-0.3561 4.0109-0.24366 9.7648-0.50605 16.69-0.29988 3.458 0.10308 7.2158 0.30925 11.245 0.82466a60.651 60.651 0 0 1 6.2038 1.0683 27.055 27.055 0 0 1 3.2987 0.93713 16.437 16.437 0 0 1 1.7524 0.78718 6.7941 6.7941 0 0 1 0.93712 0.57164l0.4873 0.34674c0.17805 0.14994 0.34674 0.30925 0.51542 0.46856a4.6856 4.6856 0 0 1 0.6185 0.75907 4.9667 4.9667 0 0 1 0.28114 0.44982l0.0937 0.17805 0.0843 0.18742a4.0015 4.0015 0 0 1 0.14994 0.3936v0.14056l0.0656 0.28114a3.308 3.308 0 0 1 0.0656 1.1339 4.3108 4.3108 0 0 1-0.6185 1.9305c-0.14994 0.23428-0.29988 0.44982-0.45919 0.66536-0.15932 0.21554-0.30926 0.33736-0.46857 0.50604a12.511 12.511 0 0 1-3.5142 2.3053 39.003 39.003 0 0 1-6.7379 2.3616 126.61 126.61 0 0 1-13.654 2.7364c-4.5825 0.63724-9.1744 1.1152-13.701 1.4713-2.2585 0.18743-4.4982 0.31862-6.7285 0.41234-2.2304 0.0937-4.4045 0.16868-6.5599 0.22491-4.3108 0.11245-8.481 0.0656-12.436-0.0562-3.9547-0.12183-7.6844-0.35611-11.124-0.65599s-6.5599-0.70284-9.3712-1.1433a71.531 71.531 0 0 1-7.1409-1.4619c-0.99335-0.21554-1.8742-0.51542-2.6146-0.74032-0.74032-0.22491-1.3963-0.50605-1.8742-0.6841l-1.5088-0.67473a0.39359 0.39359 0 0 1-0.19679-0.52479 0.40296 0.40296 0 0 1 0.47793-0.21554"/>
  <path class="cls-3" d="m328.69 43.399-3.2987-3.3736c-1.0496-1.0777-2.3334-2.3053-3.8047-3.7485l-2.3428-2.2491-2.6614-2.4646c-1.8742-1.7337-3.9172-3.5142-6.0913-5.4353l-3.4018-2.877-3.6079-2.9238c-1.237-0.99335-2.5209-1.9492-3.8047-2.9426-1.2838-0.99335-2.6333-1.9305-3.964-2.9144-2.7177-1.8742-5.4915-3.8047-8.3685-5.5009a62.431 62.431 0 0 0-8.7902-4.5169 19.174 19.174 0 0 0-2.2022-0.75907l-0.14057-0.046856h-0.0843l-0.29988-0.056227-0.60913-0.12183a3.8891 3.8891 0 0 0-0.50604 0h-0.45919a3.3643 3.3643 0 0 0-1.6774 0.38422c-0.25303 0.084341-0.39359 0.30925-0.60913 0.45919a3.0175 3.0175 0 0 0-0.41234 0.72158 7.019 7.019 0 0 0-0.14994 3.964 19.895 19.895 0 0 0 1.3214 3.9921 29.182 29.182 0 0 0 1.9398 3.6829 33.83 33.83 0 0 0 2.2491 3.1862 34.955 34.955 0 0 0 9.0339 8.153 18.808 18.808 0 0 0 3.1019 1.4807c0.75907 0.24365 1.1714 0.35611 1.1714 0.35611s-0.42171-0.08434-1.1995-0.27177a18.311 18.311 0 0 1-3.1768-1.2839 35.611 35.611 0 0 1-9.7929-7.6563 34.467 34.467 0 0 1-2.5771-3.1581 31.937 31.937 0 0 1-2.3053-3.7485 21.938 21.938 0 0 1-1.7712-4.367 9.0901 9.0901 0 0 1-0.0937-5.3135 5.7446 5.7446 0 0 1 0.70284-1.3963 5.4541 5.4541 0 0 1 2.6614-1.8086 8.4341 8.4341 0 0 1 1.5181-0.27177h0.77781a5.4166 5.4166 0 0 1 0.72158 0l0.6185 0.07497h0.72159a25.527 25.527 0 0 1 2.5865 0.6841 66.048 66.048 0 0 1 9.6149 4.1046c3.1112 1.5556 6.0913 3.308 9.0151 5.0511 1.4338 0.93712 2.8863 1.7899 4.2733 2.6989 1.387 0.90901 2.8114 1.8086 4.1046 2.7364l3.9078 2.7364 3.6829 2.6895c2.3616 1.7993 4.6106 3.4767 6.6161 5.1073l2.8957 2.3241 2.5865 2.1554c1.6306 1.3588 3.0456 2.549 4.1514 3.533l3.5048 3.308a3.8556 3.8556 0 1 1-5.0698 5.8102l-0.20617-0.18742"/>
  <path class="cls-3" d="m380.55 49.443 0.99335 0.56227c0.62787 0.34674 1.6493 1.0027 2.8114 1.8742a38.966 38.966 0 0 1 4.039 3.2987 35.779 35.779 0 0 1 4.6013 5.0886c0.34674 0.4873 0.6841 0.99335 1.0402 1.5088 0.3561 0.51542 0.73095 1.1714 1.0496 1.7899a19.848 19.848 0 0 1 1.6868 4.0765l0.25303 1.1995c0.075 0.40296 0.0843 0.85278 0.12182 1.2839a11.883 11.883 0 0 1-0.0656 1.3869 8.1061 8.1061 0 0 1-0.40296 1.4807 6.1007 6.1007 0 0 1-1.4244 2.071c-0.21554 0.17805-0.44982 0.35611-0.6841 0.52479a8.1904 8.1904 0 0 1-1.4619 0.73096 12.37 12.37 0 0 1-1.4807 0.32799c-0.46856 0-0.93712 0.09371-1.4244 0.09371h-1.4151a22.229 22.229 0 0 1-2.3241-0.41233c-0.85278-0.18742-1.6962-0.39359-2.4553-0.63724-0.75907-0.24365-1.565-0.44982-2.3241-0.73096a91.238 91.238 0 0 1-9.0432-3.6641l-2.2116-1.0215-2.1741-1.0777c-1.4525-0.71221-2.8114-1.4713-4.2733-2.221-2.8114-1.5088-5.5197-3.055-8.1155-4.62q-1.9492-1.1527-3.8047-2.3334c-1.2276-0.77781-2.4459-1.5088-3.5986-2.2866-2.3147-1.5181-4.5076-2.9613-6.4849-4.3576s-3.7953-2.6614-5.3791-3.8141c-1.5837-1.1527-2.98-2.1648-4.0952-3.0175l-3.5517-2.7833a3.8648 3.8648 0 1 1 4.6856-6.1475l0.14056 0.10308 0.0656 0.0656 3.3174 2.8114c1.0496 0.93712 2.3428 1.9586 3.8422 3.1487s3.1768 2.5583 5.0605 3.9828c1.8836 1.4244 3.9172 2.9707 6.1007 4.5638 1.0777 0.80592 2.2304 1.5744 3.3924 2.399 1.162 0.82467 2.3428 1.64 3.5798 2.4459 2.4365 1.6493 5.0042 3.2799 7.6469 4.873 1.3213 0.79655 2.6521 1.6025 4.0203 2.3522l2.0336 1.1527 2.0336 1.0496a87.612 87.612 0 0 0 8.3872 3.8984c0.70284 0.29051 1.3963 0.53416 2.0992 0.77781 0.70285 0.24365 1.3588 0.44982 2.0054 0.63724a19.68 19.68 0 0 0 2.146 0.49667h0.36547l0.44982 0.05623h0.8153c0.27176 0 0.46856-0.08434 0.70284-0.10308s0.39359-0.12183 0.51542-0.22491a0.93712 0.93712 0 0 1 0.20617-0.12183c0.075 0 0.10308-0.12183 0.15931-0.16868 0.0562-0.04686 0.17805-0.26239 0.28113-0.39359a4.9105 4.9105 0 0 0 0.0937-2.9238 16.868 16.868 0 0 0-1.1901-3.3362c-0.25302-0.53416-0.54353-1.0215-0.79655-1.5275l-0.93713-1.5463a33.155 33.155 0 0 0-3.8797-4.7793 36.342 36.342 0 0 0-3.5798-3.2331 29.857 29.857 0 0 0-2.5209-1.8086l-0.93711-0.6185a1.297 1.297 0 0 1 1.3401-2.221"/>
  <path class="cls-3" d="m68.543 51.205a34.364 34.364 0 0 1-7.675 3.3736 5.3885 5.3885 0 0 1 3.3268 2.0898 5.4822 5.4822 0 0 1 0.86215 4.1327q-0.80592 3.3455-7.1128 6.2319a28.648 28.648 0 0 1-11.245 2.8114 16.643 16.643 0 0 1-3.9828-0.30925 17.665 17.665 0 0 1-3.3362-1.0215 3.1019 3.1019 0 0 1-1.3963 0.93712 6.0351 6.0351 0 0 1-1.8742 0.33736 8.6684 8.6684 0 0 1-2.0429-0.14994 2.4459 2.4459 0 0 1-1.4432-0.73096 1.49 1.49 0 0 1-0.34674-1.1433 3.0644 3.0644 0 0 1 0.1312-0.52479 2.2772 2.2772 0 0 1 0.21554-0.53416q3.0082-4.9012 4.3295-7.0097 2.8114-4.4045 4.8074-7.2533c1.8086-2.5677 3.5611-4.8449 5.2573-6.8691a4.6013 4.6013 0 0 1-2.1835-0.4217c-0.6185-0.30925-0.93712-0.67473-0.84341-1.1152 0.05623-0.18742 0.30925-0.4217 0.74033-0.70284a6.8223 6.8223 0 0 1 1.49-0.69347 24.824 24.824 0 0 1 3.4674-0.75907 4.1327 4.1327 0 0 1 1.1245-1.1527 3.0082 3.0082 0 0 1 1.5275-0.4217 4.5919 4.5919 0 0 1 2.4084 0.93712c1.0121-0.11246 1.9586-0.18742 2.8114-0.21554l2.8114-0.07497 3.2893-0.09371a10.561 10.561 0 0 1 6.5599 1.565 4.3014 4.3014 0 0 1 1.9586 4.3014q-0.59039 2.4927-3.636 4.4794m-10.421 6.3631a14.188 14.188 0 0 0-4.2077-0.35611c-0.93712 0-2.1741 0.12183-3.6454 0.30925s-2.6708 0.34674-3.6267 0.50605q-1.4994 1.9773-2.6052 3.5142c-0.49668 0.6841-1.3401 1.8742-2.5209 3.5517a13.279 13.279 0 0 0 1.7899 0.32799 15.2 15.2 0 0 0 2.2304 0.07497 24.365 24.365 0 0 0 8.6684-2.2678c3.3455-1.4432 5.1073-2.8114 5.276-4.1233 0.10308-0.73096-0.35611-1.237-1.3588-1.5369m7.8437-12.248c0.08434-0.56227-0.30925-0.93712-1.162-1.0871a15.472 15.472 0 0 0-3.383-0.18742c-0.20617 0-0.66536 0-1.3869 0.08434l-1.4244 0.08434c-0.99335 0.93712-2.1554 2.221-3.4861 3.7485l-3.2799 3.7953a33.933 33.933 0 0 0 6.9816-1.565 15.163 15.163 0 0 0 6.9628-4.4232 1.4338 1.4338 0 0 0 0.15931-0.44982"/>
  <path class="cls-3" d="m105.28 41.918a1.7618 1.7618 0 0 1-1.1246 0.37485c-2.0242 0.0656-3.8516 0.14994-5.4541 0.28114s-3.3174 0.32799-5.1073 0.59039a61.71 61.71 0 0 0-4.6294 5.1917q-1.8742 2.3615-4.1233 5.4634h2.3334c1.5463 0 2.8114 0 3.9172-0.05623a9.0995 9.0995 0 0 1 2.2585 0.21554c0.74033 0.16868 1.1527 0.45919 1.2276 0.85278a0.93712 0.93712 0 0 1-0.25302 0.7497 0.93712 0.93712 0 0 1-0.74033 0.32799 57.783 57.783 0 0 0-11.245 1.4244q-2.8863 4.0765-5.4728 8.1623c1.2839-0.14994 2.4646-0.25302 3.5517-0.32799s2.4834-0.1312 4.1796-0.18742h3.0363c1.0308 0 2.0804-0.07497 3.1487-0.09371 0.93712 0 1.3588 0.2624 1.2745 0.85278a1.3026 1.3026 0 0 1-0.63724 0.8809 3.308 3.308 0 0 1-1.5369 0.51542c-1.8742 0.05623-3.8703 0.1968-5.932 0.43108s-5.2104 0.69347-9.4837 1.3963a2.4553 2.4553 0 0 1-1.0308 0.22491 7.2158 7.2158 0 0 1-4.8168-2.0429c-0.53416-0.58102-0.78718-1.0121-0.74033-1.312a4.6294 4.6294 0 0 1 0.79655-1.5181c1.743-2.549 3.5048-5.1261 5.2104-7.7969q2.0429-3.0925 4.8543-7.6938 2.3615-3.8891 4.7325-7.75a4.0671 4.0671 0 0 1 1.312-1.1058 3.5798 3.5798 0 0 1 1.4525-0.31862 5.1073 5.1073 0 0 1 1.7524 0.26239l4.2452-0.12183c2.2959-0.0656 4.6294-0.10308 6.9816-0.12183 2.3522-0.01874 4.0577 0 5.1073 0.09371s1.5181 0.50605 1.4244 1.3026a1.4244 1.4244 0 0 1-0.49668 0.8809"/>
  <path class="cls-3" d="m142.59 40.503a6.5599 6.5599 0 0 1-2.1835 0.4873l-8.256 1.0496a118.36 118.36 0 0 0-9.0526 11.058q-3.7485 5.1354-7.6188 11.433l-0.75907 1.968c-0.37485 0.57164-1.3963 0.89027-3.055 0.93712a4.5263 4.5263 0 0 1-3.1768-0.78718 1.4994 1.4994 0 0 1-0.47794-1.6493q3.0082-5.7071 6.2412-11.039 3.2331-5.3322 7.0472-10.702c-0.29988 0-1.4244 0.05623-3.3643 0.17805-1.9398 0.12183-3.2799 0.17805-4.0484 0.1968-1.1808-0.10308-2.2491-0.21554-3.1862-0.34674-1.7899-0.28114-2.5958-0.66536-2.4271-1.1901 0.075-0.32799 0.52479-0.67473 1.3588-1.0496a10.889 10.889 0 0 1 2.6708-0.79655 119.54 119.54 0 0 1 12.764-1.5369q7.6094-0.56227 13.56-0.74033c3.6267-0.09371 5.3697 0.37485 5.2291 1.4244-0.0656 0.44045-0.4873 0.8153-1.2651 1.1152"/>
  <path class="cls-3" d="m178.31 39.651a7.0097 7.0097 0 0 1-2.1835 0.4873l-8.3029 1.0402a122.85 122.85 0 0 0-9.0526 11.067q-3.7485 5.1354-7.6094 11.424l-0.75907 1.968c-0.37484 0.58102-1.3963 0.93712-3.0644 0.93712a4.6013 4.6013 0 0 1-3.1768-0.79655 1.49 1.49 0 0 1-0.46856-1.6493q3.0082-5.7352 6.2694-11.067 3.2612-5.3322 7.0378-10.693c-0.29987 0-1.4244 0.0656-3.3549 0.17805l-4.0577 0.1968c-1.1808-0.10308-2.2397-0.21554-3.1862-0.35611-1.7899-0.27176-2.5958-0.66536-2.4271-1.1808 0.075-0.32799 0.53415-0.6841 1.3588-1.0496a10.908 10.908 0 0 1 2.6708-0.80592 120.11 120.11 0 0 1 12.81-1.5275c5.0886-0.37485 9.5961-0.6185 13.56-0.74033 3.6267-0.10308 5.3697 0.36548 5.2291 1.4244-0.0562 0.43108-0.47793 0.80592-1.2651 1.1152"/>
  <path class="cls-3" d="m205.08 39.219a1.7618 1.7618 0 0 1-1.1246 0.37485c-2.0242 0.05623-3.8516 0.14994-5.454 0.28114-1.6025 0.1312-3.308 0.32799-5.1073 0.59039a61.85 61.85 0 0 0-4.6294 5.1917c-1.2745 1.5744-2.6521 3.3924-4.114 5.4634h6.2694a9.1276 9.1276 0 0 1 2.2585 0.1968c0.74032 0.17805 1.1527 0.45919 1.2276 0.86215a0.93712 0.93712 0 0 1-0.24365 0.74033 0.98398 0.98398 0 0 1-0.7497 0.33736 57.08 57.08 0 0 0-11.245 1.4338q-2.8863 4.0765-5.4822 8.1623c1.2839-0.14057 2.4646-0.25302 3.5517-0.32799s2.4834-0.1312 4.1796-0.18742c0.99335 0 2.0054 0 3.0363-0.04686l3.1487-0.08434c0.93712 0 1.3588 0.25302 1.2745 0.84341a1.2745 1.2745 0 0 1-0.63725 0.93712 3.308 3.308 0 0 1-1.5369 0.51542c-1.8742 0-3.8703 0.1968-5.9226 0.43108s-5.2198 0.70284-9.493 1.3963a2.4459 2.4459 0 0 1-1.0215 0.22491 6.2506 6.2506 0 0 1-2.6895-0.66536 6.7848 6.7848 0 0 1-2.2116-1.4713c-0.54353-0.59039-0.77781-1.0215-0.74033-1.3213a4.948 4.948 0 0 1 0.79656-1.5275c1.7712-2.4927 3.5048-5.0792 5.2291-7.75 1.3401-2.0617 2.9426-4.62 4.8168-7.7031l4.6856-7.7406a4.1046 4.1046 0 0 1 1.312-1.1152 3.7485 3.7485 0 0 1 1.5181-0.34674 5.3603 5.3603 0 0 1 1.7524 0.27176l4.2452-0.12182q3.4392-0.09371 6.9816-0.12183c2.3522 0 4.0577 0 5.1073 0.09371s1.5275 0.50605 1.415 1.3026a1.3682 1.3682 0 0 1-0.4873 0.8809"/>
  <path class="cls-3" d="m233.6 43.258c-0.54353 1.7712-2.0523 3.4018-4.545 4.9105a66.536 66.536 0 0 1-8.3216 3.8047c0.21554 1.3682 0.5529 2.9988 1.0308 4.9012 0.34673 1.3588 0.78718 2.9519 1.3401 4.77a1.8742 1.8742 0 0 1-0.88089 1.5463 8.0218 8.0218 0 0 1-2.4553 1.0589c-0.53416 0.0656-0.93713 0.11246-1.2089 0.12183a5.9039 5.9039 0 0 1-1.6493-0.15931 1.3213 1.3213 0 0 1-0.93712-0.66536 54.747 54.747 0 0 0-2.4553-5.0136 48.121 48.121 0 0 0-3.1112-4.9293l-5.6227 8.4997a3.9078 3.9078 0 0 1-1.4057 2.1179 4.5169 4.5169 0 0 1-2.5115 0.74033 6.6723 6.6723 0 0 1-0.83404 0c-0.33736 0-0.57164-0.0656-0.74033-0.08434q-3.0738-0.39359-2.8114-2.3053a3.964 3.964 0 0 1 0.19679-0.73096q3.5704-6.1756 7.8531-12.482 3.8516-5.6227 9.0432-12.445a3.4018 3.4018 0 0 1 1.2651-1.1058 2.7458 2.7458 0 0 1 1.6681-0.39359 45.835 45.835 0 0 1 7.497 0.34674 17.805 17.805 0 0 1 7.0659 2.221 5.1354 5.1354 0 0 1 2.5677 5.3041m-5.8476-0.93712c0.24365-0.8153-0.34673-1.4057-1.7805-1.7712a20.345 20.345 0 0 0-5.4353-0.44982q-3.7485 4.6013-6.8504 8.8183a55.628 55.628 0 0 0 9.0339-3.1768q4.6106-2.1085 5.0323-3.4205"/>
  <path class="cls-3" d="m151.95 83.461a11.958 11.958 0 0 1-1.5369 4.5732 14.797 14.797 0 0 1-3.636 3.9547 7.675 7.675 0 0 1-4.3201 1.4151 4.9011 4.9011 0 0 1-2.877-0.64662 1.9961 1.9961 0 0 1-0.88089-2.1179 16.868 16.868 0 0 0 2.4459-2.2585q2.2491-2.3334 2.3803-3.2987c0.0562-0.41233-0.1312-0.59976-0.56228-0.59039a5.3322 5.3322 0 0 0-1.9867 0.66536c-0.45919 0.25302-0.93712 0.49668-1.3869 0.73096q-8.4341 6.0257-12.286 11.798a26.024 26.024 0 0 0-1.64 2.5583 9.718 9.718 0 0 0-1.2651 3.1112 1.6493 1.6493 0 0 0 0.25302 1.2651 2.6239 2.6239 0 0 0 1.3776 0.8153 7.0378 7.0378 0 0 0 2.2772 0.27177 21.732 21.732 0 0 0 6.9909-1.6962 26.755 26.755 0 0 0 5.4447-2.7083 2.877 2.877 0 0 1 1.4057-0.4873c0.59975 0 0.86215 0.20616 0.80592 0.66535a1.8742 1.8742 0 0 1-0.83404 1.0777 36.66 36.66 0 0 1-6.916 4.0015 20.017 20.017 0 0 1-7.3002 1.7899 22.144 22.144 0 0 1-7.497-0.8153q-2.8114-0.93712-3.458-2.5396a3.8609 3.8609 0 0 1-0.32799-1.312 6.6817 6.6817 0 0 1 0-1.312 9.4649 9.4649 0 0 1 0.36547-1.5744 15.631 15.631 0 0 1 0.86216-1.9398 45.413 45.413 0 0 1 8.4341-11.826q5.8851-6.0351 11.648-8.1436a4.6013 4.6013 0 0 1 1.5181-0.1968 22.2 22.2 0 0 1 3.6548 0.23428 13.944 13.944 0 0 1 3.3643 0.80592 9.3712 9.3712 0 0 1 4.2358 1.4151 2.6427 2.6427 0 0 1 1.1808 2.3147"/>
  <path class="cls-3" d="m178.39 91.97a108.34 108.34 0 0 0-2.3334 12.529c0 0.27176-0.59038 0.59976-1.8742 0.99335a8.256 8.256 0 0 1-3.0738 0.52479 6.8129 6.8129 0 0 1-2.877-0.44045c-0.7497-0.32799-1.0964-0.7497-1.0215-1.2651a1.2089 1.2089 0 0 1 0.27176-0.58101l1.0121-5.6227c-3.0738 0.62787-5.529 1.1714-7.3845 1.6306-2.399 0.58101-4.8637 1.237-7.3752 1.9492l-4.8168 5.0792a1.0496 1.0496 0 0 1-0.6841 0.2624 2.3241 2.3241 0 0 1-1.49-0.54353 1.3588 1.3588 0 0 1-0.65599-1.2558 1.2745 1.2745 0 0 1 0.33737-0.6185q13.56-13.626 28.835-26.745l0.0843-0.28114a14.441 14.441 0 0 1 2.9144-0.44982 6.26 6.26 0 0 1 3.2893 0.66536 12.651 12.651 0 0 1 2.2304 0.0656c0.39359 0.05623 0.57164 0.21554 0.54353 0.43108a3.9265 3.9265 0 0 1-0.53416 0.93712c-0.33736 0.51542-0.60913 0.93712-0.82467 1.3026a45.047 45.047 0 0 0-4.5732 11.414m-10.768-3.1019q-2.0242 1.7149-5.0886 4.5263c-1.3963 1.2651-2.9894 2.8114-4.7793 4.4982q3.3643-0.93712 5.5384-1.4619c1.4525-0.29988 3.4299-0.69347 5.9507-1.1339q0.85278-3.0644 1.6118-5.276a49.236 49.236 0 0 1 2.1741-5.4353c-2.0336 1.5463-3.8328 2.9613-5.4072 4.2826"/>
  <path class="cls-3" d="m208.53 79.31a117.5 117.5 0 0 0-8.7621 10.693q-3.6735 5.0605-7.0846 10.852c1.0496-0.11245 2.4272-0.21554 4.1421-0.29051l2.9332-0.12182 4.1421-0.12183a2.4084 2.4084 0 0 1 1.565 0.38422 1.0308 1.0308 0 0 1 0.43108 1.0121c-0.11246 0.84341-0.83404 1.4057-2.1648 1.6774q-6.5598 0.80593-11.367 1.6306-3.7485 0.64661-6.4943 1.3213a6.0913 6.0913 0 0 1-0.80592 0.0656 4.114 4.114 0 0 1-2.1554-0.40297 1.3026 1.3026 0 0 1-0.62788-1.415 3.9265 3.9265 0 0 1 0.58102-1.3495c1.8742-2.4646 4.1796-5.7446 6.8504-9.8679 2.221-3.4392 4.2639-6.7004 6.1007-9.7929s3.0175-5.1729 3.533-6.2693c0.0469-0.37485 0.58102-0.74033 1.5837-1.0777a9.9616 9.9616 0 0 1 2.9613-0.54353 15.566 15.566 0 0 1 3.7485 0.20617c1.2558 0.31862 1.8274 0.93712 1.7056 1.7712a3.9265 3.9265 0 0 1-0.8153 1.64"/>
  <path class="cls-3" d="m239.66 78.457a117.5 117.5 0 0 0-8.7621 10.693q-3.6548 5.0511-7.0846 10.852c1.0496-0.11245 2.4272-0.21554 4.1421-0.29051s2.6896-0.12183 2.9332-0.12183l4.1421-0.12183a2.3428 2.3428 0 0 1 1.565 0.37485 1.0589 1.0589 0 0 1 0.43108 1.0215q-0.16868 1.2558-2.1648 1.6868-6.5599 0.78719-11.358 1.6212-3.7485 0.63725-6.4942 1.3214a6.2506 6.2506 0 0 1-0.80593 0.0656 4.1327 4.1327 0 0 1-2.1648-0.40297 1.3026 1.3026 0 0 1-0.62787-1.415 4.039 4.039 0 0 1 0.58101-1.3588q2.8114-3.6829 6.8597-9.8679c2.2116-3.4299 4.2545-6.7004 6.0913-9.7742s3.0175-5.1823 3.533-6.2787c0.0562-0.37485 0.58102-0.74033 1.5837-1.0777a10.308 10.308 0 0 1 2.9613-0.54353 14.582 14.582 0 0 1 3.7485 0.21554c1.2557 0.30925 1.818 0.93712 1.7056 1.7618a3.9828 3.9828 0 0 1-0.8153 1.64"/>
 </g>
</svg>
